<?xml version="1.0" encoding="UTF-8"?>
<svg id="Layer_1" data-name="Layer 1" xmlns="http://www.w3.org/2000/svg" xmlns:xlink="http://www.w3.org/1999/xlink" viewBox="0 0 72 72">
  <defs>
    <style>
      .cls-1 {
        fill: #fff;
      }

      .cls-1, .cls-2, .cls-3, .cls-4 {
        fill-rule: evenodd;
      }

      .cls-5 {
        clip-path: url(#clippath-7);
      }

      .cls-6 {
        clip-path: url(#clippath-1);
      }

      .cls-7 {
        clip-path: url(#clippath-4);
      }

      .cls-2, .cls-8 {
        fill: #ffca05;
      }

      .cls-3, .cls-9 {
        fill: #231f20;
      }

      .cls-10 {
        clip-path: url(#clippath-9);
      }

      .cls-11 {
        clip-path: url(#clippath);
      }

      .cls-12 {
        clip-rule: evenodd;
      }

      .cls-12, .cls-13 {
        fill: none;
      }

      .cls-4 {
        fill: #080808;
      }

      .cls-14 {
        clip-path: url(#clippath-3);
      }

      .cls-15 {
        clip-path: url(#clippath-8);
      }

      .cls-16 {
        clip-path: url(#clippath-10);
      }
    </style>
    <clipPath id="clippath">
      <path class="cls-13" d="M58.83,48.47c.59,5.44-27.35,8.97-27.94,3.56-.29-2.25-.49-4.09-.78-6.35,.22,1.69,6.54,1.87,14.28,.92,7.73-1.02,13.75-3.03,13.54-4.72,.27,2.12,.55,3.89,.9,6.59"/>
    </clipPath>
    <clipPath id="clippath-1">
      <path class="cls-13" d="M43.45,41.36c-1.04,.13-2.06,.3-3.03,.49l.83,6.52c.99-.06,2.01-.15,3.05-.28,6.53-.83,11.85-2.95,13.32-5.11-1.97-1.72-7.66-2.45-14.18-1.61"/>
    </clipPath>
    <clipPath id="clippath-3">
      <path class="cls-12" d="M56.22,41.82c.13,4.46-7.12,3.93-8.33,2.45-1.95-2.37,1.05-4.16,2.68-5.56,.23-.67,.07-1.15,.39-1.35,.9-.17,1.03,.67,1.25,1.33,.19,.55,3.94,.55,4.02,3.13"/>
    </clipPath>
    <clipPath id="clippath-4">
      <path class="cls-12" d="M51.21,37.43c-.29,0-.48,.18-.38,.47,.15-.16,.07-.09,.18-.24,.07-.1,.1-.12,.19-.23m-.78,1.59c-.78,.68-2.5,1.94-2.77,2.82-.89,3.2,2.6,3.38,4.89,3.2,1.86-.15,3.13-1.2,3.42-2.75,.17-.92-.39-1.8-.86-2.16-.41-.32-1.41-.63-2.04-.82l.03,.02c.52,.56,.43,.26,.96,.89l-.8-.47c-.06-.03-.09-.04-.15-.06l-.14-.05s-.03-.01-.04-.02c-.84-.17-1.02-.66-1.11-1.39l-.16-.48c-.21,.38-.42,1.67,.72,2.2,.71,.33,1.5,.55,1.67,1.47-.27-.71-1.28-.85-1.91-1.19-1.19-.65-.75-1.74-.81-2.26-.48,.74-.43,1.96,.23,2.64,.47,.49,1.44,1.48,.86,2.24-.04-1.06-.12-1.15-.73-1.7-.6-.54-.77-.52-.94-1.64-.24,.16-.48,.97-.49,1.33-.02,.69,.28,1.04,.36,1.56-.01-.19-.47-.79-.57-1.19-.15-.61,.08-1.07,.26-1.51-.21,.1-1.11,1.1-1.2,1.24-.6,.95-.34,.84-.33,2.02-.34-.44-.29-1.32-.08-1.77,.22-.47,.58-.81,.95-1.17,.38-.36,.61-.69,.76-.99Zm5.78,2.8c.13,4.46-7.12,3.93-8.33,2.45-1.95-2.37,1.05-4.16,2.68-5.56,.23-.67,.07-1.15,.39-1.35,.9-.17,1.03,.67,1.25,1.33,.19,.55,3.94,.55,4.02,3.13Z"/>
    </clipPath>
    <clipPath id="clippath-7">
      <path class="cls-12" d="M37.94,44.68c1.07,5.78,10.27,3.09,11.42,.85,1.85-3.6-2.51-5.07-4.99-6.42-.48-.81-.41-1.46-.88-1.64-1.2,.03-1.14,1.15-1.24,2.06-.09,.76-4.93,1.8-4.31,5.15"/>
    </clipPath>
    <clipPath id="clippath-8">
      <path class="cls-12" d="M43.18,37.63c.37-.08,.67,.09,.62,.51-.24-.16-.12-.1-.3-.26-.12-.11-.17-.13-.31-.25m1.44,1.84c1.2,.66,3.76,1.81,4.35,2.88,2.04,3.87-2.42,5.09-5.41,5.48-2.43,.32-4.37-.68-5.17-2.6-.48-1.14,0-2.43,.5-3.02,.44-.52,1.64-1.21,2.4-1.63l-.03,.03c-.51,.86-.48,.45-1,1.42l.9-.82c.07-.05,.11-.07,.18-.11l.17-.11s.03-.02,.05-.04c1.04-.45,1.13-1.13,1.04-2.1l.07-.67c.37,.43,1,2.04-.32,3.03-.82,.62-1.78,1.13-1.75,2.36,.15-.99,1.41-1.44,2.13-2.06,1.35-1.17,.49-2.45,.41-3.13,.82,.82,1.1,2.41,.44,3.47-.47,.76-1.45,2.31-.49,3.13-.24-1.37-.16-1.51,.47-2.39,.62-.86,.84-.89,.76-2.38,.35,.13,.89,1.11,1,1.58,.22,.89-.07,1.42-.03,2.11-.03-.24,.38-1.15,.4-1.7,.03-.83-.39-1.36-.76-1.87,.3,.06,1.74,1.11,1.89,1.26,1.04,1.06,.67,.99,.98,2.52,.32-.66,0-1.78-.39-2.31-.42-.55-.97-.89-1.55-1.24-.59-.36-.98-.72-1.25-1.07Zm-6.68,5.22c1.07,5.78,10.27,3.09,11.42,.85,1.85-3.6-2.51-5.07-4.99-6.42-.48-.81-.41-1.46-.88-1.64-1.2,.03-1.14,1.15-1.24,2.06-.09,.76-4.93,1.8-4.31,5.15Z"/>
    </clipPath>
    <clipPath id="clippath-9">
      <path class="cls-13" d="M57.96,46.27h0c-.04,.05-.09,.1-.14,.15h0s0,0,0,0h0s0,0,0,0c-1.67,1.63-6.74,3.31-12.9,4.12-6.16,.76-11.48,.41-13.51-.75h0s0,0,0,0h0s0,0,0,0h-.02s0-.01,0-.01c-.06-.03-.11-.07-.16-.1h0c-.17-.14-.44-.38-.67-.75l.23,1.81c.61,4.75,28.45,1.16,27.85-3.55l-.21-1.67c-.14,.32-.34,.58-.48,.74m-1.92-2.31h0s0,0,0,0h0Z"/>
    </clipPath>
    <clipPath id="clippath-10">
      <path class="cls-13" d="M57.93,41.87h0c-.12-.58-.98-1.03-2.37-1.32,.14,.28,.42,.94,.44,1.68,.62,.18,1.12,.39,1.49,.63-1.5,1.68-6.69,3.44-13.04,4.28-6.36,.78-11.83,.38-13.7-.87,.25-.28,.6-.56,1.04-.84-.15-.44-.25-1.03-.14-1.68-1.02,.57-1.59,1.14-1.57,1.67h0s0-.04-.01-.06v.11s.01,0,.01,0h0s0,0,0,0h0s0,0,0,0h0s0,0,0,0h0s0,0,0,0h0s0,0,0,0h0s.24,1.85,.24,1.85c.61,4.75,28.45,1.16,27.85-3.55l-.25-1.98s0,.05,0,.07h0Z"/>
    </clipPath>
  </defs>
  <path d="M49.93,58.58c-1.26,0-2.45-.21-3.12-.41-1.44-.44-2.4-1.55-2.39-2.77,0-.52,.22-1.73,1.93-2.41-.46-1.74-.6-5.31,1.1-6.28,.2-.11,.55-.26,1.01-.23,.05-.06,.1-.11,.15-.17,.61-.6,1.65-1.02,2.53-.71,.13-.05,.27-.08,.41-.09,.49-.04,1.01,.2,1.47,.65,.57,.56,1.21,1.62,1.3,3.58,.23,.13,.42,.32,.55,.56,.41,.76,.07,1.67-.4,2.93-.08,.2-.17,.46-.26,.71,.11,.06,.2,.13,.27,.19,.25,.23,.52,.64,.45,1.35-.09,.93-.57,1.7-1.37,2.23-.98,.66-2.35,.87-3.63,.87Zm-3.14-3.14c.05,.1,.27,.33,.7,.46,1.14,.34,3.26,.48,4.41,.02-.63-.88-.15-2.17,.36-3.52,.06-.15,.12-.32,.18-.5-.34-.24-.53-.64-.5-1.05v-.09c.07-1.29-.12-2.05-.31-2.47-.22,.1-.48,.14-.73,.08-.2-.04-.39-.13-.54-.26,.02,.41-.17,.81-.53,1.05-.4,.27-.92,.26-1.31,0-.17,.76-.21,2.17,.11,3.3l.07,.24c.09,.32,.14,.5,.11,.77-.04,.79-.52,1.39-1.29,1.6h0c-.46,.13-.68,.29-.75,.36Zm7.04-3.54h0Zm-3.87-4.77h0s0,0,0,0Z"/>
  <path class="cls-1" d="M47.22,53.94c.46-.13,.42-.46,.43-.56,0-.11,.03,0-.14-.59-.66-2.3-.21-6.61,1.67-4.61-.41-.92,.99-1.72,1.6-1.44,.38,.17,.35,.49,.35,.49,0,0,.18-.51,.49-.53,.31-.02,1.68,.8,1.5,4.14,0,.03,0,.07,0,.1,.22-.11,.43-.21,.57-.18,.82,.19-1.47,3.88-.78,4.53,.12,.12,.18-.29,.44-.34,.46-.09,.41,.29,.4,.42-.25,2.5-4.86,2.2-6.6,1.67-1.74-.52-2.4-2.41,.07-3.1"/>
  <path class="cls-1" d="M50.13,47.09c-.03,1.08-1.57,2.98-2.04,2.31-2.06,1.91,1.84,13.07-.61,13.92-1.01,.35-2.38-.28-2.38-.28,0,0-.35,.87-1.31,.84-.96-.03-2.03-1.08-2.03-1.08,0,0-1.7,1.09-2.79,1.05-1.09-.05-1.78-1.03-2.12-2.22,.54-.03,1.02-.17,1.43-.41-1.88,.12-3.68,.05-5.42-.15,.47,.32,1.05,.49,1.74,.52-.33,1.17-.64,2.11-1.72,2.1-1.09-.01-2.71-1.2-2.71-1.2,0,0-1.15,1-2.11,.97-.96-.03-1.25-.91-1.25-.91,0,0-1.46,.63-2.4,.14-.53-.28-1-3.47-.79-4.9,.8-.35,1.21-1.26,.64-1.87,.1,.23-.38,1.76-1.45,1.39-.44-.15-.38-.53-.38-.53,0,0-.22,.53-.57,.54-.35,.01-1.88-.9-1.55-4.43,0-.04,0-.08,.01-.12-.43,.2-.65,.18-.89,.03-.74-.47,1.85-5.88,3.54-6.72-3.79,1.13,.9-5.23,1.62-5.73l-.42,.17s-.52,.19-.96,.27c-.44,.08-.8,.1-.68-.17,.45-1.01,1.79-2.88,4.75-3.24,.06-.86-2-.27-1.54-.65,1.74-1.48,4.46-1.73,6.64-1.26,.17-.1-1.51-.69-2.1-.63,.52-.57,4.32-1.24,5.03,.85,.49-1.17,3.27-2.13,4.52-1.28-.61,.2-1.05,.32-1.63,1.01,.22-.1,3.96-2.44,8.77,.72,.43,.41-1.43,.27-1.66,.63,2.26,.41,3.76,1.92,4.59,3.44,.14,.26-.25,.23-.69,.13-.44-.1-.92-.28-.94-.32l-.36-.16c1.38,1.32,3.24,5.98,3.13,7.09-.04,.38-.56,.15-.88,.16"/>
  <path class="cls-9" d="M43.83,65.06s-.05,0-.08,0c-.81-.02-1.59-.45-2.12-.83-.72,.38-1.79,.83-2.72,.79-1.36-.06-2.45-.99-3.05-2.58-.1,0-.2,0-.3,0-.34,1.08-.97,2.42-2.67,2.42-.01,0-.03,0-.04,0-.92-.01-1.96-.53-2.66-.94-.56,.36-1.37,.73-2.18,.71-.75-.02-1.3-.33-1.69-.7-.7,.16-1.65,.24-2.48-.2-.48-.25-.96-.77-1.29-2.88-.11-.7-.2-1.62-.18-2.43h-.01c-.15,.05-.31,.09-.49,.09-.53,.01-1.09-.26-1.58-.78-.58-.62-1.22-1.75-1.24-3.78-.09-.04-.19-.09-.28-.15-.27-.17-.72-.59-.67-1.49,.06-1.24,1.23-3.83,2.56-5.61-.07-.1-.13-.19-.17-.28-.45-.93-.1-2.23,1.15-4.21,.08-.13,.17-.27,.27-.41-.12-.08-.24-.18-.34-.31-.3-.38-.35-.89-.14-1.36,.26-.59,1.11-2.16,3.06-3.15-.05-.36,.05-.81,.47-1.16,1.25-1.06,2.82-1.56,4.37-1.71,.02-.03,.04-.05,.06-.07,.76-.84,2.95-1.14,4.4-.85,.63,.13,1.16,.36,1.6,.69,.46-.31,1.01-.57,1.63-.75,1.33-.39,2.58-.28,3.43,.28,1.86-.3,4.36-.1,7.15,1.73,.06,.04,.12,.09,.17,.14,.38,.37,.52,.87,.37,1.34,1.44,.91,2.32,2.17,2.78,3.01,.26,.47,.23,1.02-.08,1.42-.14,.18-.3,.3-.47,.39,1.07,2.05,1.93,4.6,1.83,5.62-.04,.4-.23,.74-.53,.98-.21,.16-.43,.24-.64,.28-.45,1.06-1.36,2.09-2.19,2.34-.04,.01-.08,.02-.12,.03-.25,1.15,.13,4.04,.35,5.69,.54,4.09,.96,7.31-1.2,8.06-.82,.28-1.71,.16-2.36,0-.4,.35-.95,.63-1.68,.63Zm-2.08-3.44c.3,0,.6,.12,.83,.34,.35,.34,.96,.74,1.24,.75,.04,0,.12,0,.19-.12,.11-.31,.32-.53,.63-.66,.31-.14,.65-.09,.95,.05,.35,.16,1.01,.33,1.41,.26,.37-.74-.03-3.74-.27-5.55-.48-3.64-.89-6.79,.56-8.14,.25-.23,.59-.34,.92-.31,.03,0,.06,0,.08,.01,.3-.32,.65-.92,.66-1.18,.01-.48,.31-.88,.73-1.06-.44-1.52-1.68-4.42-2.6-5.3-.42-.4-.48-1.04-.16-1.52,.09-.13,.19-.23,.31-.31-.57-.43-1.28-.79-2.16-.95-.38-.07-.71-.33-.87-.68-.16-.36-.13-.77,.08-1.1,0-.01,.01-.02,.02-.03-2.63-.94-4.65-.15-5.5,.31-.06,.03-.11,.06-.13,.07-.5,.23-1.1,.08-1.43-.36-.11-.15-.18-.31-.22-.48-.37,.19-.6,.39-.65,.49-.19,.45-.64,.73-1.13,.72-.49-.02-.92-.33-1.07-.8-.05-.15-.16-.33-.56-.48-.03,0-.05-.02-.08-.03-.04,.36-.24,.7-.56,.9-.26,.16-.57,.22-.87,.15-1.08-.23-2.52-.29-3.81,.07,.11,.23,.15,.5,.13,.77-.04,.56-.47,1.02-1.03,1.09-.96,.12-1.7,.42-2.26,.78,.19,.11,.35,.27,.46,.47,.28,.52,.13,1.16-.34,1.5-.52,.46-1.92,2.44-2.42,3.61,.51-.04,1,.25,1.2,.74,.23,.57-.02,1.21-.57,1.49-.87,.44-2.32,3.06-2.84,4.52,.12,.04,.24,.09,.34,.17,.34,.25,.53,.66,.48,1.08v.1c-.15,1.48,.08,2.3,.31,2.75,.27-.17,.6-.23,.94-.14,.13,.03,.25,.09,.36,.17,.04-.34,.23-.65,.53-.85,.48-.31,1.11-.24,1.5,.18,.49,.51,.69,1.21,.55,1.9-.11,.56-.44,1.08-.91,1.46-.03,1.06,.2,2.59,.42,3.22,.32,.02,.82-.08,1.18-.23,.32-.13,.67-.17,.98-.01,.3,.15,.52,.38,.6,.71,.06,.11,.13,.12,.17,.12h0c.28,0,.91-.36,1.29-.68,.42-.36,1.02-.38,1.47-.06,.64,.46,1.61,.97,2.03,.97,.06,0,.09,0,.09,0,0,0,.02-.02,.03-.03-.29-.11-.57-.25-.82-.42-.45-.31-.63-.88-.44-1.39,.19-.51,.7-.82,1.24-.76,1.77,.2,3.47,.25,5.21,.15,.54-.03,1.04,.31,1.2,.83,.16,.52-.06,1.08-.52,1.36-.11,.07-.23,.13-.35,.18,.14,.15,.3,.25,.49,.26,.42,.01,1.43-.43,2.11-.86,.19-.12,.42-.18,.63-.18Zm2.25,.98h0Zm-16.09-.43h0s0,0,0,0Zm-4.76-5.8s0,0,0,0c0,0,0,0,0,0Zm2.1-15.06s-.01,0-.02,.01c0,0,.01,0,.02-.01Zm-2.09-1.45h0s0,0,0,0Zm0,0s0,0,0,0c0,0,0,0,0,0Zm0,0s0,0,0,0c0,0,0,0,0,0Zm0,0s0,0,0,0c0,0,0,0,0,0Zm0,0s0,0,0,0c0,0,0,0,0,0Zm0,0s0,0,0,0c0,0,0,0,0,0Zm0,0h0s0,0,0,0Zm0,0s0,0,0,0c0,0,0,0,0,0Zm0,0s0,0,0,0c0,0,0,0,0,0Zm0,0s0,0,0,0c0,0,0,0,0,0Zm0,0s0,0,0,0c0,0,0,0,0,0Zm26.09-.41s0,0,0,0c0,0,0,0,0,0Zm0,0s0,0,0,0c0,0,0,0,0,0Zm0,0s0,0,0,0c0,0,0,0,0,0Zm0,0s0,0,0,0c0,0,0,0,0,0Zm0,0s0,0,0,0c0,0,0,0,0,0Zm0,0s0,0,0,0c0,0,0,0,0,0Zm0,0s0,0,0,0c0,0,0,0,0,0Zm0,0s0,0,0,0c0,0,0,0,0,0Zm0,0s0,0,0,0c0,0,0,0,0,0Zm0,0s0,0,0,0c0,0,0,0,0,0Zm0,0h0s0,0,0,0Zm0,0s0,0,0,0c0,0,0,0,0,0Zm0,0s0,0,0,0c0,0,0,0,0,0Zm0,0s0,0,0,0c0,0,0,0,0,0Zm0,0s0,0,0,0c0,0,0,0,0,0Zm0,0s0,0,0,0c0,0,0,0,0,0Zm0,0h0s0,0,0,0Z"/>
  <path class="cls-1" d="M50.13,47.09c-.03,1.08-1.57,2.98-2.04,2.31-2.06,1.91,1.84,13.07-.61,13.92-1.01,.35-2.38-.28-2.38-.28,0,0-.35,.87-1.31,.84-.96-.03-2.03-1.08-2.03-1.08,0,0-1.7,1.09-2.79,1.05-1.09-.05-1.78-1.03-2.12-2.22,.54-.03,1.02-.17,1.43-.41-1.88,.12-3.68,.05-5.42-.15,.47,.32,1.05,.49,1.74,.52-.33,1.17-.64,2.11-1.72,2.1-1.09-.01-2.71-1.2-2.71-1.2,0,0-1.15,1-2.11,.97-.96-.03-1.25-.91-1.25-.91,0,0-1.46,.63-2.4,.14-.53-.28-1-3.47-.79-4.9,.8-.35,1.21-1.26,.64-1.87,.1,.23-.38,1.76-1.45,1.39-.44-.15-.38-.53-.38-.53,0,0-.22,.53-.57,.54-.35,.01-1.88-.9-1.55-4.43,0-.04,0-.08,.01-.12-.43,.2-.65,.18-.89,.03-.74-.47,1.85-5.88,3.54-6.72-3.79,1.13,.9-5.23,1.62-5.73l-.42,.17s-.52,.19-.96,.27c-.44,.08-.8,.1-.68-.17,.45-1.01,1.79-2.88,4.75-3.24,.06-.86-2-.27-1.54-.65,1.74-1.48,4.46-1.73,6.64-1.26,.17-.1-1.51-.69-2.1-.63,.52-.57,4.32-1.24,5.03,.85,.49-1.17,3.27-2.13,4.52-1.28-.61,.2-1.05,.32-1.63,1.01,.22-.1,3.96-2.44,8.77,.72,.43,.41-1.43,.27-1.66,.63,2.26,.41,3.76,1.92,4.59,3.44,.14,.26-.25,.23-.69,.13-.44-.1-.92-.28-.94-.32l-.36-.16c1.38,1.32,3.24,5.98,3.13,7.09-.04,.38-.56,.15-.88,.16"/>
  <path class="cls-9" d="M36.15,60.41c-.26,0-.52,0-.79-.01-1.04-.03-1.93-.12-2.73-.26-1.33-.24-1.65-.52-1.75-.61-.4-.35-.64-.83-.73-1.47-.04-.29-.1-.99,.23-1.33l.09-.1,.13-.03c.06-.01,.25-.05,.72,.13,.34,.14,.67,.32,.95,.48,.18,.11,.37,.21,.55,.32,.15,.09,.3,.18,.45,.27l.05,.03c.09,.05,.33,.19,.44,.21,.04-.02,.09-.08,.14-.16l.31-.57,.42,.5c.31,.37,.58,.56,.8,.57,0,0,0,0,.01,0,.21,0,.49-.17,.81-.51l.45-.47,.27,.59c.04,.1,.1,.16,.14,.18,.1,0,.35-.13,.44-.18l.05-.03c.15-.08,.31-.15,.46-.23,.19-.1,.38-.19,.57-.29,.29-.14,.63-.3,.98-.41,.49-.15,.67-.1,.73-.08l.12,.04,.08,.1c.35,.4,.2,1.22,.15,1.46-.12,.55-.4,.99-.83,1.3-.11,.08-.46,.32-1.78,.47-.6,.07-1.23,.1-1.94,.1Zm-5.16-2.86c0,.11,0,.25,.02,.38,.06,.42,.2,.72,.44,.93,.11,.1,.53,.27,1.33,.41,.76,.14,1.61,.22,2.6,.25,.98,.03,1.83,0,2.61-.08,1.05-.12,1.32-.28,1.37-.31,.25-.18,.41-.43,.48-.77,.04-.16,.05-.34,.05-.48,0,0,0,0,0,0-.3,.09-.6,.24-.86,.36-.19,.09-.37,.18-.56,.28-.16,.08-.31,.16-.47,.24l-.05,.02c-.36,.18-.71,.33-1.04,.25-.12-.03-.25-.09-.39-.2-.3,.24-.68,.44-1.12,.43-.44-.02-.81-.25-1.09-.51-.14,.1-.29,.15-.4,.17-.34,.06-.68-.12-1.02-.32l-.05-.03c-.15-.09-.31-.18-.46-.27-.18-.11-.36-.21-.54-.32-.25-.14-.55-.31-.84-.43Zm8.88,.09h0Zm-8.85-.33"/>
  <path class="cls-2" d="M21.37,21.02c.09-.19,.18-.37,.29-.56,2.85-7.25,10.95-.63,13.5-1.5,2.75-.95,7.77-3.23,10.23-1.14,.9,.77,1.59,1.95,2.24,3.28,1.26,2.62,2.15,5.84,1.99,9.19l-.17,1.76c-.82,.39-3.16,.97-5.08,1.16,.93,2.07,1.75,5.64,2.04,8.32-4.47-1.41-6.55-2.41-11.98-2.4-5.57,0-7.42,1.08-11.9,2.41,.33-3.43,1.16-5.55,2.03-8.42-1.83,.15-4.12-.89-5.07-.99-.33-2.54,.07-8.96,1.89-11.13Z"/>
  <path class="cls-9" d="M22.5,41.58v-.04c.27-2.81,.87-4.71,1.57-6.92,.15-.47,.3-.96,.46-1.47-1.2,.09-2.57-.32-3.67-.65-.56-.17-1.05-.31-1.37-.34h-.02s0-.02,0-.02c-.15-1.16-.17-3.37,.14-5.71,.33-2.55,.96-4.48,1.75-5.43,.09-.19,.18-.37,.29-.56,.87-2.21,2.29-3.33,4.35-3.43,.11,0,.22,0,.33,0,1.69,0,3.5,.63,5.11,1.19,1.57,.54,2.93,1.02,3.72,.74,.35-.12,.73-.26,1.14-.41,1.41-.52,3.16-1.16,4.81-1.44,1.94-.33,3.35-.09,4.31,.72,1,.85,1.72,2.21,2.24,3.29,1.01,2.09,2.17,5.39,1.99,9.21l-.17,1.78h-.01c-.81,.39-3.14,.97-5.05,1.17,.99,2.21,1.77,5.84,2.03,8.29v.04s-.03-.01-.03-.01c-.67-.21-1.28-.41-1.87-.6-3.29-1.08-5.47-1.79-10.03-1.79-.03,0-.05,0-.08,0-4.41,0-6.5,.68-9.39,1.62-.77,.25-1.57,.51-2.5,.79h-.03Zm2.09-8.47v.03c-.17,.52-.33,1.02-.48,1.51-.69,2.19-1.29,4.09-1.56,6.87,.91-.27,1.7-.53,2.47-.78,2.89-.94,4.98-1.62,9.4-1.62h.08c4.57,0,6.75,.71,10.04,1.79,.58,.19,1.18,.39,1.84,.59-.31-2.87-1.16-6.34-2.03-8.27v-.03s.02,0,.02,0c1.91-.19,4.24-.77,5.06-1.15l.17-1.75c.18-3.8-.98-7.09-1.99-9.18-.52-1.08-1.24-2.43-2.23-3.28-2.13-1.82-6.31-.29-9.07,.73-.41,.15-.79,.29-1.14,.41-.81,.28-2.18-.19-3.75-.74-1.71-.59-3.65-1.27-5.42-1.18-2.04,.1-3.45,1.22-4.31,3.41-.11,.19-.2,.37-.29,.56h0c-.79,.95-1.41,2.87-1.75,5.42-.3,2.32-.29,4.52-.14,5.68,.33,.04,.81,.18,1.36,.34,1.11,.33,2.49,.74,3.69,.64h.04Z"/>
  <path class="cls-1" d="M42.31,9.88c.95-.87,1.65-.56,2.53-.99-2-2.41-6.92-1.21-9.73,1.21-1.42-1-1.89-1.74-4.19-2.25-2.94-.66-3.38,.05-5.49,.79l1.14,.6c.51,.14,.89,.23,1.37,.34l-.39,.2c-.06,.02-.13,.05-.2,.08-.94,.32-2.11,.07-4.31,1.11-2.14,1.01-3.95,2.41-5.23,4.15-1.39,1.88-2.39,4.04-2.66,6.5,1.54-1.04,2.39-2.27,4.7-2.95-.51,.95-1.11,1.62-1.77,2.66-1.53,2.4-2.92,5.85-3.63,8.7-.88,3.54-1.1,11.44,.8,14.24,1.27-1.18,3.42-3.28,5.22-4.26,.22,2.21,.33,6.87,3.55,8.16,.13-.44,.26-.97,.44-1.52,.08-.24,.2-.61,.3-.85l.25-.49c.01-.09,.06-.11,.1-.16,.72,2.73,2.53,4.06,4.44,5.4,1,.7,1.97,1.23,2.94,1.84,1.13,.71,1.75,1.67,2.95,2.06,.84-1.44,3.88-2.92,5.53-4.05,1.99-1.38,2.95-2.3,3.98-4.47l.39-.8,.94,3.07c2.69-1.66,3.15-4.08,3.53-8.16,2.99,1.76,4.07,3.53,5.37,4.33,1.33-5.26,2.05-8.87,.6-14.57-1.81-7.12-4.22-8.53-5.31-11.12,2.99,.93,3.51,2.51,4.68,3.05-.45-6.35-6.19-11.49-12.84-11.81m-6.53,10.07c2.52-.87,7.14-2.97,9.39-1.05,.83,.71,1.46,1.79,2.06,3.02,1.15,2.4,1.97,5.36,1.83,8.44l-.15,1.62c-.75,.36-2.9,.89-4.66,1.07,.86,1.9,1.61,5.18,1.87,7.64-4.11-1.29-6.01-2.21-11-2.2-5.12,0-6.81,.99-10.92,2.21,.3-3.15,1.07-5.1,1.86-7.73-1.68,.14-3.78-.82-4.66-.91-1.26-21.13,12.53-11.46,14.39-12.11Z"/>
  <path class="cls-9" d="M45.12,9.46c-.1,.05-.2,.09-.29,.12,2.54,.57,4.85,1.81,6.69,3.51,2.41,2.22,4.02,5.23,4.26,8.55l.08,1.07-.97-.45c-.52-.24-.88-.59-1.32-1.01-.42-.4-.9-.87-1.64-1.3,.14,.22,.3,.44,.46,.68,1.21,1.77,2.75,4.02,4.01,8.98,.74,2.92,.93,5.31,.76,7.65-.17,2.32-.69,4.57-1.36,7.23l-.21,.84-.74-.45c-.56-.35-1.05-.82-1.64-1.39-.72-.69-1.58-1.53-2.86-2.39-.17,1.63-.4,2.98-.83,4.13-.55,1.46-1.42,2.58-2.89,3.49l-.7,.43-.71-2.32c-.43,.82-.88,1.46-1.41,2.04-.66,.72-1.43,1.32-2.46,2.03-.49,.34-1.07,.69-1.67,1.06-1.48,.89-3.14,1.9-3.66,2.79l-.26,.44-.48-.15c-.86-.27-1.43-.77-2.02-1.28-.33-.29-.68-.59-1.08-.84-.28-.18-.64-.39-.99-.6-.64-.38-1.28-.77-1.98-1.26-.99-.69-1.95-1.38-2.77-2.26-.52-.57-.99-1.2-1.36-1.96h0c-.11,.35-.2,.68-.29,.99-.05,.19-.1,.37-.15,.52l-.2,.67-.65-.26c-3.14-1.26-3.62-5.13-3.85-7.67-1.35,.92-2.8,2.29-3.85,3.27l-.95,.88-.42-.61c-.91-1.35-1.37-3.7-1.51-6.22-.17-3.1,.12-6.5,.62-8.52,.37-1.49,.92-3.14,1.58-4.72,.63-1.51,1.36-2.96,2.13-4.17,.2-.32,.39-.59,.56-.83-.47,.3-.88,.64-1.29,.98-.42,.34-.84,.69-1.31,1.01l-1.14,.77,.15-1.36c.14-1.29,.47-2.51,.96-3.64,.48-1.13,1.1-2.18,1.82-3.16,.66-.9,1.47-1.71,2.38-2.44,.93-.74,1.97-1.37,3.09-1.9,1.24-.59,2.17-.79,2.92-.9l-1.83-.97,1.37-.48c.42-.15,.79-.3,1.13-.45h0c1.36-.57,2.2-.92,4.7-.36,1.91,.43,2.64,1,3.58,1.73,.14,.11,.29,.23,.45,.35,1.46-1.13,3.35-1.96,5.14-2.25,2-.32,3.9,.04,5.06,1.38,.17,.16,.4,.48,.57,.67l-.74,.36Zm-3.23-.05c.59-.54,1.09-.71,1.58-.81-.83-.41-1.9-.48-3.04-.3-1.69,.27-3.47,1.08-4.79,2.18l-.48,.42-.4-.28c-.34-.24-.63-.46-.89-.67-.81-.63-1.44-1.12-3.07-1.49-2.01-.45-2.74-.2-3.79,.23l.41,.11c.21,.05,.43,.1,.67,.16l1.73,.4c-.68,.34-1.39,.73-2.09,1.03-.05,.02-.1,.04-.17,.07-.38,.13-.75,.18-1.18,.23-.74,.09-1.69,.21-3.05,.85-1.04,.49-2,1.08-2.85,1.75-.82,.65-1.54,1.39-2.14,2.2-.67,.9-1.24,1.87-1.68,2.9-.23,.55-.43,1.12-.58,1.71,.95-.79,1.9-1.55,3.61-2.05l1.46-.43-.72,1.34c-.32,.6-.66,1.08-1.03,1.59-.26,.36-.53,.73-.76,1.11-.72,1.14-1.42,2.53-2.03,3.98-.64,1.52-1.17,3.11-1.52,4.53-.48,1.92-.75,5.17-.59,8.15,.11,1.92,.4,3.71,.93,4.92,1.3-1.22,3.14-2.92,4.76-3.8l.84-.46,.1,.95c.03,.32,.05,.49,.06,.66,.18,2.03,.47,5.3,2.45,6.64,.07-.26,.15-.53,.23-.79h0c.08-.26,.21-.64,.32-.91l.02-.04,.22-.42c.04-.16,.11-.24,.19-.32l.77-1.12,.35,1.34c.33,1.25,.91,2.18,1.63,2.95,.74,.8,1.64,1.44,2.57,2.09,.62,.43,1.27,.82,1.91,1.21,.31,.19,.62,.38,1.01,.62,.48,.3,.86,.63,1.23,.95,.38,.33,.74,.65,1.16,.86,.83-1,2.38-1.94,3.78-2.79,.6-.37,1.18-.71,1.61-1.01,.96-.66,1.67-1.21,2.24-1.84,.57-.62,1.03-1.35,1.52-2.38,.2-.59,.8-1.64,1.1-2.25l1.16,3.77c.81-.65,1.33-1.43,1.69-2.37,.47-1.26,.68-2.83,.86-4.82l.09-1,.86,.51c1.9,1.12,3.05,2.23,3.96,3.11,.25,.24,.49,.47,.71,.67,.54-2.2,.95-4.12,1.09-6.07,.16-2.21-.02-4.47-.73-7.25-1.21-4.74-2.68-6.89-3.83-8.57-.57-.84-1.07-1.57-1.45-2.46l-.53-1.26,1.3,.41c1.93,.6,2.9,1.45,3.64,2.16-.52-2.37-1.83-4.51-3.63-6.17-2.22-2.04-5.19-3.36-8.38-3.51l-1.52-.07,1.12-1.03Zm-4.84,10.76c-.33,.12-.64,.24-1.06,.38-.57,.2-1.5-.11-2.7-.51-1.57-.52-3.69-1.22-5.63-1.1-3.22,.19-6.14,2.74-5.65,12.59,.25,.06,.53,.15,.84,.24,.95,.28,2.17,.65,3.16,.56l.93-.08-.27,.89c-.14,.47-.29,.94-.43,1.39-.54,1.71-1.02,3.25-1.3,5.27,.48-.15,.93-.3,1.36-.44,2.72-.88,4.66-1.51,8.82-1.52,4.34,0,6.39,.66,9.48,1.67l.77,.25c-.14-1-.35-2.08-.61-3.11-.31-1.27-.69-2.48-1.09-3.36l-.36-.8,.88-.09c.81-.08,1.71-.24,2.52-.43,.65-.15,1.22-.31,1.62-.45l.12-1.22c.06-1.38-.08-2.75-.36-4.04-.32-1.47-.82-2.86-1.41-4.08-.28-.59-.58-1.15-.9-1.63-.3-.46-.63-.86-1-1.18-1.69-1.44-5.26-.12-7.72,.78Zm-1.47-.82c.22-.08,.61-.22,1.03-.37,2.75-1.01,6.73-2.48,8.98-.55,.46,.39,.86,.88,1.23,1.45,.35,.54,.67,1.14,.98,1.78,.63,1.32,1.17,2.8,1.51,4.36,.3,1.4,.45,2.87,.38,4.38-.05,.67-.13,1.34-.19,2.01l-.32,.15c-.43,.2-1.25,.46-2.2,.67-.58,.13-1.21,.25-1.84,.35,.31,.82,.59,1.79,.84,2.8,.35,1.43,.62,2.95,.76,4.25l.1,.96-.92-.29c-.61-.19-1.18-.38-1.73-.56-2.97-.97-4.95-1.62-9.09-1.61-3.95,0-5.82,.61-8.43,1.46-.69,.22-1.44,.47-2.32,.73l-.9,.27,.09-.94c.25-2.65,.82-4.45,1.46-6.47l.18-.57c-.95-.08-1.92-.37-2.72-.61-.49-.15-.91-.27-1.14-.29l-.54-.05-.03-.54c-.67-11.28,2.89-14.19,6.82-14.42,2.19-.13,4.44,.61,6.11,1.16,.98,.32,1.73,.57,1.89,.52Z"/>
  <path class="cls-9" d="M40.46,25.42c-.08,0-.16,0-.23,.01-.11,.02-.21,.04-.31,.1-.17,.07-.32,.19-.34,.38-.04,.43,.04,.84,.27,1.2,.2,.33,.49,.53,.87,.61,.07,.01,.15,0,.21-.05,.23-.19,.45-.4,.62-.66,.15-.22,.25-.45,.25-.73,0-.21-.08-.37-.25-.49-.33-.22-.69-.38-1.1-.38m.32-1.37c.62-.02,1.15,.22,1.65,.59,.23,.17,.47,.37,.66,.6,.15,.18,.21,.38,.19,.62-.02,.29-.08,.57-.19,.84-.13,.29-.25,.57-.4,.84-.3,.51-.71,.91-1.22,1.19-.56,.31-1.13,.3-1.69,.02-.41-.2-.77-.49-1.07-.85-.47-.54-.61-1.16-.48-1.85,.01-.08,.01-.15-.01-.22-.11-.36-.05-.69,.21-.97,.16-.18,.35-.33,.58-.4,.34-.13,.69-.24,1.04-.33,.23-.06,.49-.06,.73-.08Zm-11.32,1.37c-.08,0-.16,0-.23,.01-.11,.02-.21,.04-.31,.1-.17,.07-.32,.19-.34,.38-.04,.43,.04,.84,.27,1.2,.2,.33,.49,.53,.87,.61,.07,.01,.15,0,.21-.05,.23-.19,.45-.4,.62-.66,.15-.22,.25-.45,.25-.73,0-.21-.08-.37-.25-.49-.33-.22-.69-.38-1.1-.38Zm.32-1.37c.62-.02,1.15,.22,1.65,.59,.23,.17,.47,.37,.66,.6,.15,.18,.21,.38,.19,.62-.02,.29-.08,.57-.19,.84-.13,.29-.25,.57-.4,.84-.3,.51-.71,.91-1.22,1.19-.56,.31-1.13,.3-1.69,.02-.41-.2-.77-.49-1.07-.85-.47-.54-.61-1.16-.48-1.85,.01-.08,.01-.15-.01-.22-.11-.36-.05-.69,.21-.97,.16-.18,.35-.33,.58-.4,.34-.13,.69-.24,1.04-.33,.23-.06,.49-.06,.73-.08Z"/>
  <path class="cls-3" d="M28.2,32.21l.17,.3c.48,3.08,7,3.02,11.72,1.43,.58-.2,1.67-.81,2.17-1.05-3.36,2.96-13.74,4.2-14.8,.14l.74-.83Z"/>
  <path class="cls-9" d="M58.83,48.47c.59,5.44-27.35,8.97-27.94,3.56-.29-2.25-.49-4.09-.78-6.35,.22,1.69,6.54,1.87,14.28,.92,7.73-1.02,13.75-3.03,13.54-4.72,.27,2.12,.55,3.89,.9,6.59"/>
  <g class="cls-11">
    <path class="cls-9" d="M50.29,58.52c-1.26,0-2.45-.21-3.12-.41-1.44-.44-2.4-1.55-2.39-2.77,0-.52,.22-1.73,1.93-2.41-.46-1.74-.6-5.31,1.1-6.28,.2-.11,.55-.26,1.01-.23,.05-.06,.1-.11,.15-.17,.61-.6,1.65-1.02,2.53-.71,.13-.05,.27-.08,.41-.09,.49-.03,1.01,.2,1.47,.65,.57,.56,1.21,1.62,1.3,3.58,.23,.13,.42,.32,.55,.56,.41,.76,.07,1.67-.4,2.93-.08,.2-.17,.46-.26,.71,.11,.06,.2,.13,.27,.19,.25,.23,.53,.64,.45,1.35-.09,.93-.57,1.7-1.37,2.23-.98,.66-2.35,.87-3.63,.87Zm-3.14-3.14c.05,.1,.27,.33,.7,.46,1.14,.34,3.26,.48,4.41,.02-.63-.88-.15-2.17,.36-3.52,.06-.15,.12-.32,.18-.5-.34-.24-.53-.64-.5-1.05v-.09c.07-1.29-.12-2.05-.31-2.47-.22,.1-.48,.14-.73,.08-.2-.04-.39-.13-.54-.26,.02,.41-.17,.81-.53,1.05-.4,.27-.92,.26-1.3,0-.17,.76-.21,2.17,.11,3.3l.07,.24c.09,.32,.14,.5,.11,.77-.04,.79-.52,1.39-1.29,1.6h0c-.46,.13-.68,.29-.75,.36Zm.11-2.64s0,0,0,0c0,0,0,0,0,0Zm3.06-5.66h0s0,0,0,0Z"/>
    <path class="cls-1" d="M47.58,53.88c.46-.13,.42-.46,.43-.56,0-.11,.03,0-.14-.59-.66-2.3-.21-6.61,1.67-4.61-.41-.92,.99-1.72,1.6-1.44,.38,.17,.35,.49,.35,.49,0,0,.18-.51,.49-.53,.31-.02,1.68,.8,1.5,4.14,0,.03,0,.07,0,.1,.22-.11,.43-.21,.57-.18,.82,.19-1.47,3.88-.78,4.53,.12,.12,.18-.29,.44-.34,.46-.09,.41,.29,.4,.42-.25,2.5-4.86,2.2-6.6,1.67-1.74-.52-2.4-2.41,.07-3.1"/>
  </g>
  <path class="cls-8" d="M43.45,41.36c-1.04,.13-2.06,.3-3.03,.49l.83,6.52c.99-.06,2.01-.15,3.05-.28,6.53-.83,11.85-2.95,13.32-5.11-1.97-1.72-7.66-2.45-14.18-1.61"/>
  <g class="cls-6">
    <path d="M63.24,58.77c-1.46,0-2.9-.33-3.66-.61-1.38-.51-2.24-1.65-2.16-2.84,.04-.51,.31-1.67,2.02-2.23-.34-1.72-.26-5.2,1.45-6.04,.2-.1,.55-.22,1-.16,.05-.05,.1-.1,.16-.15,.63-.55,1.66-.89,2.5-.54,.13-.04,.26-.06,.41-.06h0c.47,0,.96,.25,1.37,.72,.52,.58,1.08,1.65,1.05,3.56,.22,.14,.39,.34,.51,.58,.35,.77-.03,1.63-.57,2.82-.09,.19-.19,.44-.3,.68,.11,.07,.19,.14,.25,.2,.23,.24,.47,.66,.36,1.34-.15,.9-.65,1.62-1.47,2.09-.82,.48-1.88,.65-2.93,.65Zm-3.51-3.26c.05,.1,.24,.34,.65,.49,1.09,.4,3.14,.66,4.29,.28-.56-.89-.02-2.12,.56-3.41,.06-.14,.14-.31,.21-.47-.31-.25-.47-.65-.42-1.05v-.08c.15-1.22,.02-1.96-.13-2.39-.22,.09-.47,.11-.72,.04-.2-.05-.38-.15-.51-.29-.02,.39-.22,.75-.57,.95-.41,.24-.91,.2-1.27-.08-.21,.73-.34,2.09-.09,3.21l.05,.23c.07,.33,.11,.49,.06,.76-.09,.77-.59,1.32-1.35,1.48h0c-.46,.1-.68,.24-.75,.31Zm.27-2.56s0,0,0,0c0,0,0,0,0,0Z"/>
    <path class="cls-1" d="M60.23,54.07c.45-.1,.44-.43,.45-.52,.02-.11,.03,0-.1-.58-.5-2.28,.2-6.44,1.91-4.38-.34-.92,1.07-1.61,1.64-1.31,.35,.19,.31,.49,.31,.49,0,0,.2-.48,.5-.48,.3,0,1.58,.88,1.21,4.12,0,.03,0,.07-.01,.1,.22-.1,.43-.18,.56-.14,.79,.24-1.66,3.68-1.03,4.36,.11,.12,.19-.27,.45-.3,.45-.06,.38,.31,.36,.43-.4,2.41-4.86,1.84-6.52,1.23-1.66-.62-2.19-2.48,.26-3.01"/>
  </g>
  <path class="cls-8" d="M43.93,41.3c1.04-.13,2.07-.22,3.05-.28l.83,6.52c-.97,.19-1.98,.36-3.03,.49-6.53,.83-12.21,.11-14.18-1.61,1.47-2.16,6.8-4.29,13.32-5.12"/>
  <path class="cls-1" d="M56.22,41.82c.13,4.46-7.12,3.93-8.33,2.45-1.95-2.37,1.05-4.16,2.68-5.56,.23-.67,.07-1.15,.39-1.35,.9-.17,1.03,.67,1.25,1.33,.19,.55,3.94,.55,4.02,3.13"/>
  <g class="cls-14">
    <path class="cls-9" d="M50.29,58.52c-1.26,0-2.45-.21-3.12-.41-1.44-.44-2.4-1.55-2.39-2.77,0-.52,.22-1.73,1.93-2.41-.46-1.74-.6-5.31,1.1-6.28,.2-.11,.55-.26,1.01-.23,.05-.06,.1-.11,.15-.17,.61-.6,1.65-1.02,2.53-.71,.13-.05,.27-.08,.41-.09,.49-.03,1.01,.2,1.47,.65,.57,.56,1.21,1.62,1.3,3.58,.23,.13,.42,.32,.55,.56,.41,.76,.07,1.67-.4,2.93-.08,.2-.17,.46-.26,.71,.11,.06,.2,.13,.27,.19,.25,.23,.53,.64,.45,1.35-.09,.93-.57,1.7-1.37,2.23-.98,.66-2.35,.87-3.63,.87Zm-3.14-3.14c.05,.1,.27,.33,.7,.46,1.14,.34,3.26,.48,4.41,.02-.63-.88-.15-2.17,.36-3.52,.06-.15,.12-.32,.18-.5-.34-.24-.53-.64-.5-1.05v-.09c.07-1.29-.12-2.05-.31-2.47-.22,.1-.48,.14-.73,.08-.2-.04-.39-.13-.54-.26,.02,.41-.17,.81-.53,1.05-.4,.27-.92,.26-1.3,0-.17,.76-.21,2.17,.11,3.3l.07,.24c.09,.32,.14,.5,.11,.77-.04,.79-.52,1.39-1.29,1.6h0c-.46,.13-.68,.29-.75,.36Zm.11-2.64s0,0,0,0c0,0,0,0,0,0Zm3.06-5.66h0s0,0,0,0Z"/>
    <path class="cls-1" d="M47.58,53.88c.46-.13,.42-.46,.43-.56,0-.11,.03,0-.14-.59-.66-2.3-.21-6.61,1.67-4.61-.41-.92,.99-1.72,1.6-1.44,.38,.17,.35,.49,.35,.49,0,0,.18-.51,.49-.53,.31-.02,1.68,.8,1.5,4.14,0,.03,0,.07,0,.1,.22-.11,.43-.21,.57-.18,.82,.19-1.47,3.88-.78,4.53,.12,.12,.18-.29,.44-.34,.46-.09,.41,.29,.4,.42-.25,2.5-4.86,2.2-6.6,1.67-1.74-.52-2.4-2.41,.07-3.1"/>
  </g>
  <path class="cls-4" d="M51.21,37.43c-.29,0-.48,.18-.38,.47,.15-.16,.07-.09,.18-.24,.07-.1,.1-.12,.19-.23m-.78,1.59c-.78,.68-2.5,1.94-2.77,2.82-.89,3.2,2.6,3.38,4.89,3.2,1.86-.15,3.13-1.2,3.42-2.75,.17-.92-.39-1.8-.86-2.16-.41-.32-1.41-.63-2.04-.82l.03,.02c.52,.56,.43,.26,.96,.89l-.8-.47c-.06-.03-.09-.04-.15-.06l-.14-.05s-.03-.01-.04-.02c-.84-.17-1.02-.66-1.11-1.39l-.16-.48c-.21,.38-.42,1.67,.72,2.2,.71,.33,1.5,.55,1.67,1.47-.27-.71-1.28-.85-1.91-1.19-1.19-.65-.75-1.74-.81-2.26-.48,.74-.43,1.96,.23,2.64,.47,.49,1.44,1.48,.86,2.24-.04-1.06-.12-1.15-.73-1.7-.6-.54-.77-.52-.94-1.64-.24,.16-.48,.97-.49,1.33-.02,.69,.28,1.04,.36,1.56-.01-.19-.47-.79-.57-1.19-.15-.61,.08-1.07,.26-1.51-.21,.1-1.11,1.1-1.2,1.24-.6,.95-.34,.84-.33,2.02-.34-.44-.29-1.32-.08-1.77,.22-.47,.58-.81,.95-1.17,.38-.36,.61-.69,.76-.99Zm5.78,2.8c.13,4.46-7.12,3.93-8.33,2.45-1.95-2.37,1.05-4.16,2.68-5.56,.23-.67,.07-1.15,.39-1.35,.9-.17,1.03,.67,1.25,1.33,.19,.55,3.94,.55,4.02,3.13Z"/>
  <g class="cls-7">
    <path class="cls-9" d="M50.29,58.52c-1.26,0-2.45-.21-3.12-.41-1.44-.44-2.4-1.55-2.39-2.77,0-.52,.22-1.73,1.93-2.41-.46-1.74-.6-5.31,1.1-6.28,.2-.11,.55-.26,1.01-.23,.05-.06,.1-.11,.15-.17,.61-.6,1.65-1.02,2.53-.71,.13-.05,.27-.08,.41-.09,.49-.03,1.01,.2,1.47,.65,.57,.56,1.21,1.62,1.3,3.58,.23,.13,.42,.32,.55,.56,.41,.76,.07,1.67-.4,2.93-.08,.2-.17,.46-.26,.71,.11,.06,.2,.13,.27,.19,.25,.23,.53,.64,.45,1.35-.09,.93-.57,1.7-1.37,2.23-.98,.66-2.35,.87-3.63,.87Zm-3.14-3.14c.05,.1,.27,.33,.7,.46,1.14,.34,3.26,.48,4.41,.02-.63-.88-.15-2.17,.36-3.52,.06-.15,.12-.32,.18-.5-.34-.24-.53-.64-.5-1.05v-.09c.07-1.29-.12-2.05-.31-2.47-.22,.1-.48,.14-.73,.08-.2-.04-.39-.13-.54-.26,.02,.41-.17,.81-.53,1.05-.4,.27-.92,.26-1.3,0-.17,.76-.21,2.17,.11,3.3l.07,.24c.09,.32,.14,.5,.11,.77-.04,.79-.52,1.39-1.29,1.6h0c-.46,.13-.68,.29-.75,.36Zm.11-2.64s0,0,0,0c0,0,0,0,0,0Zm3.06-5.66h0s0,0,0,0Z"/>
    <path class="cls-1" d="M47.58,53.88c.46-.13,.42-.46,.43-.56,0-.11,.03,0-.14-.59-.66-2.3-.21-6.61,1.67-4.61-.41-.92,.99-1.72,1.6-1.44,.38,.17,.35,.49,.35,.49,0,0,.18-.51,.49-.53,.31-.02,1.68,.8,1.5,4.14,0,.03,0,.07,0,.1,.22-.11,.43-.21,.57-.18,.82,.19-1.47,3.88-.78,4.53,.12,.12,.18-.29,.44-.34,.46-.09,.41,.29,.4,.42-.25,2.5-4.86,2.2-6.6,1.67-1.74-.52-2.4-2.41,.07-3.1"/>
  </g>
  <path class="cls-1" d="M38.92,43.73c.15,3.96-5.85,3.44-6.86,2.11-1.63-2.12,.84-3.69,2.17-4.92,.18-.6,.05-1.02,.31-1.2,.74-.14,.85,.61,1.04,1.19,.16,.49,3.26,.52,3.34,2.82"/>
  <path class="cls-4" d="M34.74,39.79c-.24,0-.4,.15-.31,.42,.13-.14,.06-.08,.15-.21,.06-.09,.08-.11,.16-.2m-.63,1.41c-.64,.6-2.05,1.7-2.26,2.49-.71,2.84,2.18,3.03,4.06,2.88,1.53-.12,2.58-1.04,2.8-2.42,.13-.82-.34-1.6-.72-1.93-.34-.29-1.17-.57-1.69-.75l.02,.02c.43,.5,.35,.23,.8,.8l-.67-.42s-.08-.03-.12-.05l-.12-.05s-.02-.01-.04-.02c-.7-.16-.85-.59-.93-1.25l-.13-.43c-.17,.33-.33,1.48,.61,1.96,.59,.3,1.24,.5,1.39,1.32-.23-.63-1.06-.76-1.59-1.07-.99-.59-.63-1.55-.69-2.01-.39,.65-.34,1.74,.21,2.35,.39,.44,1.21,1.33,.73,2-.04-.94-.11-1.02-.62-1.51-.5-.48-.64-.47-.79-1.47-.2,.14-.39,.86-.39,1.18,0,.62,.24,.93,.31,1.39-.01-.17-.39-.71-.48-1.07-.13-.54,.05-.95,.21-1.34-.17,.08-.91,.97-.98,1.09-.49,.84-.27,.74-.25,1.8-.29-.39-.25-1.18-.08-1.58,.18-.42,.47-.72,.78-1.03,.31-.32,.5-.61,.62-.87Zm4.8,2.54c.15,3.96-5.85,3.44-6.86,2.11-1.63-2.12,.84-3.69,2.17-4.92,.18-.6,.05-1.02,.31-1.2,.74-.14,.85,.61,1.04,1.19,.16,.49,3.26,.52,3.34,2.82Z"/>
  <path class="cls-1" d="M37.94,44.68c1.07,5.78,10.27,3.09,11.42,.85,1.85-3.6-2.51-5.07-4.99-6.42-.48-.81-.41-1.46-.88-1.64-1.2,.03-1.14,1.15-1.24,2.06-.09,.76-4.93,1.8-4.31,5.15"/>
  <g class="cls-5">
    <path class="cls-9" d="M50.29,58.52c-1.26,0-2.45-.21-3.12-.41-1.44-.44-2.4-1.55-2.39-2.77,0-.52,.22-1.73,1.93-2.41-.46-1.74-.6-5.31,1.1-6.28,.2-.11,.55-.26,1.01-.23,.05-.06,.1-.11,.15-.17,.61-.6,1.65-1.02,2.53-.71,.13-.05,.27-.08,.41-.09,.49-.03,1.01,.2,1.47,.65,.57,.56,1.21,1.62,1.3,3.58,.23,.13,.42,.32,.55,.56,.41,.76,.07,1.67-.4,2.93-.08,.2-.17,.46-.26,.71,.11,.06,.2,.13,.27,.19,.25,.23,.53,.64,.45,1.35-.09,.93-.57,1.7-1.37,2.23-.98,.66-2.35,.87-3.63,.87Zm-3.14-3.14c.05,.1,.27,.33,.7,.46,1.14,.34,3.26,.48,4.41,.02-.63-.88-.15-2.17,.36-3.52,.06-.15,.12-.32,.18-.5-.34-.24-.53-.64-.5-1.05v-.09c.07-1.29-.12-2.05-.31-2.47-.22,.1-.48,.14-.73,.08-.2-.04-.39-.13-.54-.26,.02,.41-.17,.81-.53,1.05-.4,.27-.92,.26-1.3,0-.17,.76-.21,2.17,.11,3.3l.07,.24c.09,.32,.14,.5,.11,.77-.04,.79-.52,1.39-1.29,1.6h0c-.46,.13-.68,.29-.75,.36Zm.11-2.64s0,0,0,0c0,0,0,0,0,0Zm3.06-5.66h0s0,0,0,0Z"/>
    <path class="cls-1" d="M47.58,53.88c.46-.13,.42-.46,.43-.56,0-.11,.03,0-.14-.59-.66-2.3-.21-6.61,1.67-4.61-.41-.92,.99-1.72,1.6-1.44,.38,.17,.35,.49,.35,.49,0,0,.18-.51,.49-.53,.31-.02,1.68,.8,1.5,4.14,0,.03,0,.07,0,.1,.22-.11,.43-.21,.57-.18,.82,.19-1.47,3.88-.78,4.53,.12,.12,.18-.29,.44-.34,.46-.09,.41,.29,.4,.42-.25,2.5-4.86,2.2-6.6,1.67-1.74-.52-2.4-2.41,.07-3.1"/>
  </g>
  <path class="cls-4" d="M43.18,37.63c.37-.08,.67,.09,.62,.51-.24-.16-.12-.1-.3-.26-.12-.11-.17-.13-.31-.25m1.44,1.84c1.2,.66,3.76,1.81,4.35,2.88,2.04,3.87-2.42,5.09-5.41,5.48-2.43,.32-4.37-.68-5.17-2.6-.48-1.14,0-2.43,.5-3.02,.44-.52,1.64-1.21,2.4-1.63l-.03,.03c-.51,.86-.48,.45-1,1.42l.9-.82c.07-.05,.11-.07,.18-.11l.17-.11s.03-.02,.05-.04c1.04-.45,1.13-1.13,1.04-2.1l.07-.67c.37,.43,1,2.04-.32,3.03-.82,.62-1.78,1.13-1.75,2.36,.15-.99,1.41-1.44,2.13-2.06,1.35-1.17,.49-2.45,.41-3.13,.82,.82,1.1,2.41,.44,3.47-.47,.76-1.45,2.31-.49,3.13-.24-1.37-.16-1.51,.47-2.39,.62-.86,.84-.89,.76-2.38,.35,.13,.89,1.11,1,1.58,.22,.89-.07,1.42-.03,2.11-.03-.24,.38-1.15,.4-1.7,.03-.83-.39-1.36-.76-1.87,.3,.06,1.74,1.11,1.89,1.26,1.04,1.06,.67,.99,.98,2.52,.32-.66,0-1.78-.39-2.31-.42-.55-.97-.89-1.55-1.24-.59-.36-.98-.72-1.25-1.07Zm-6.68,5.22c1.07,5.78,10.27,3.09,11.42,.85,1.85-3.6-2.51-5.07-4.99-6.42-.48-.81-.41-1.46-.88-1.64-1.2,.03-1.14,1.15-1.24,2.06-.09,.76-4.93,1.8-4.31,5.15Z"/>
  <g class="cls-15">
    <path class="cls-9" d="M50.29,58.52c-1.26,0-2.45-.21-3.12-.41-1.44-.44-2.4-1.55-2.39-2.77,0-.52,.22-1.73,1.93-2.41-.46-1.74-.6-5.31,1.1-6.28,.2-.11,.55-.26,1.01-.23,.05-.06,.1-.11,.15-.17,.61-.6,1.65-1.02,2.53-.71,.13-.05,.27-.08,.41-.09,.49-.03,1.01,.2,1.47,.65,.57,.56,1.21,1.62,1.3,3.58,.23,.13,.42,.32,.55,.56,.41,.76,.07,1.67-.4,2.93-.08,.2-.17,.46-.26,.71,.11,.06,.2,.13,.27,.19,.25,.23,.53,.64,.45,1.35-.09,.93-.57,1.7-1.37,2.23-.98,.66-2.35,.87-3.63,.87Zm-3.14-3.14c.05,.1,.27,.33,.7,.46,1.14,.34,3.26,.48,4.41,.02-.63-.88-.15-2.17,.36-3.52,.06-.15,.12-.32,.18-.5-.34-.24-.53-.64-.5-1.05v-.09c.07-1.29-.12-2.05-.31-2.47-.22,.1-.48,.14-.73,.08-.2-.04-.39-.13-.54-.26,.02,.41-.17,.81-.53,1.05-.4,.27-.92,.26-1.3,0-.17,.76-.21,2.17,.11,3.3l.07,.24c.09,.32,.14,.5,.11,.77-.04,.79-.52,1.39-1.29,1.6h0c-.46,.13-.68,.29-.75,.36Zm.11-2.64s0,0,0,0c0,0,0,0,0,0Zm3.06-5.66h0s0,0,0,0Z"/>
    <path class="cls-1" d="M47.58,53.88c.46-.13,.42-.46,.43-.56,0-.11,.03,0-.14-.59-.66-2.3-.21-6.61,1.67-4.61-.41-.92,.99-1.72,1.6-1.44,.38,.17,.35,.49,.35,.49,0,0,.18-.51,.49-.53,.31-.02,1.68,.8,1.5,4.14,0,.03,0,.07,0,.1,.22-.11,.43-.21,.57-.18,.82,.19-1.47,3.88-.78,4.53,.12,.12,.18-.29,.44-.34,.46-.09,.41,.29,.4,.42-.25,2.5-4.86,2.2-6.6,1.67-1.74-.52-2.4-2.41,.07-3.1"/>
  </g>
  <path class="cls-8" d="M57.96,46.27h0c-.04,.05-.09,.1-.14,.15h0s0,0,0,0h0s0,0,0,0c-1.67,1.63-6.74,3.31-12.9,4.12-6.16,.76-11.48,.41-13.51-.75h0s0,0,0,0h0s0,0,0,0h-.02s0-.01,0-.01c-.06-.03-.11-.07-.16-.1h0c-.17-.14-.44-.38-.67-.75l.23,1.81c.61,4.75,28.45,1.16,27.85-3.55l-.21-1.67c-.14,.32-.34,.58-.48,.74m-1.92-2.31h0s0,0,0,0h0Z"/>
  <g class="cls-10">
    <path class="cls-9" d="M50.29,58.52c-1.26,0-2.45-.21-3.12-.41-1.44-.44-2.4-1.55-2.39-2.77,0-.52,.22-1.73,1.93-2.41-.46-1.74-.6-5.31,1.1-6.28,.2-.11,.55-.26,1.01-.23,.05-.06,.1-.11,.15-.17,.61-.6,1.65-1.02,2.53-.71,.13-.05,.27-.08,.41-.09,.49-.03,1.01,.2,1.47,.65,.57,.56,1.21,1.62,1.3,3.58,.23,.13,.42,.32,.55,.56,.41,.76,.07,1.67-.4,2.93-.08,.2-.17,.46-.26,.71,.11,.06,.2,.13,.27,.19,.25,.23,.53,.64,.45,1.35-.09,.93-.57,1.7-1.37,2.23-.98,.66-2.35,.87-3.63,.87Zm-3.14-3.14c.05,.1,.27,.33,.7,.46,1.14,.34,3.26,.48,4.41,.02-.63-.88-.15-2.17,.36-3.52,.06-.15,.12-.32,.18-.5-.34-.24-.53-.64-.5-1.05v-.09c.07-1.29-.12-2.05-.31-2.47-.22,.1-.48,.14-.73,.08-.2-.04-.39-.13-.54-.26,.02,.41-.17,.81-.53,1.05-.4,.27-.92,.26-1.3,0-.17,.76-.21,2.17,.11,3.3l.07,.24c.09,.32,.14,.5,.11,.77-.04,.79-.52,1.39-1.29,1.6h0c-.46,.13-.68,.29-.75,.36Zm.11-2.64s0,0,0,0c0,0,0,0,0,0Zm3.06-5.66h0s0,0,0,0Z"/>
    <path class="cls-1" d="M47.58,53.88c.46-.13,.42-.46,.43-.56,0-.11,.03,0-.14-.59-.66-2.3-.21-6.61,1.67-4.61-.41-.92,.99-1.72,1.6-1.44,.38,.17,.35,.49,.35,.49,0,0,.18-.51,.49-.53,.31-.02,1.68,.8,1.5,4.14,0,.03,0,.07,0,.1,.22-.11,.43-.21,.57-.18,.82,.19-1.47,3.88-.78,4.53,.12,.12,.18-.29,.44-.34,.46-.09,.41,.29,.4,.42-.25,2.5-4.86,2.2-6.6,1.67-1.74-.52-2.4-2.41,.07-3.1"/>
  </g>
  <path class="cls-9" d="M57.93,41.87h0c-.12-.58-.98-1.03-2.37-1.32,.14,.28,.42,.94,.44,1.68,.62,.18,1.12,.39,1.49,.63-1.5,1.68-6.69,3.44-13.04,4.28-6.36,.78-11.83,.38-13.7-.87,.25-.28,.6-.56,1.04-.84-.15-.44-.25-1.03-.14-1.68-1.02,.57-1.59,1.14-1.57,1.67h0s0-.04-.01-.06v.11s.01,0,.01,0h0s0,0,0,0h0s0,0,0,0h0s0,0,0,0h0s0,0,0,0h0s0,0,0,0h0s.24,1.85,.24,1.85c.61,4.75,28.45,1.16,27.85-3.55l-.25-1.98s0,.05,0,.07h0Z"/>
  <g class="cls-16">
    <path class="cls-9" d="M50.29,58.52c-1.26,0-2.45-.21-3.12-.41-1.44-.44-2.4-1.55-2.39-2.77,0-.52,.22-1.73,1.93-2.41-.46-1.74-.6-5.31,1.1-6.28,.2-.11,.55-.26,1.01-.23,.05-.06,.1-.11,.15-.17,.61-.6,1.65-1.02,2.53-.71,.13-.05,.27-.08,.41-.09,.49-.03,1.01,.2,1.47,.65,.57,.56,1.21,1.62,1.3,3.58,.23,.13,.42,.32,.55,.56,.41,.76,.07,1.67-.4,2.93-.08,.2-.17,.46-.26,.71,.11,.06,.2,.13,.27,.19,.25,.23,.53,.64,.45,1.35-.09,.93-.57,1.7-1.37,2.23-.98,.66-2.35,.87-3.63,.87Zm-3.14-3.14c.05,.1,.27,.33,.7,.46,1.14,.34,3.26,.48,4.41,.02-.63-.88-.15-2.17,.36-3.52,.06-.15,.12-.32,.18-.5-.34-.24-.53-.64-.5-1.05v-.09c.07-1.29-.12-2.05-.31-2.47-.22,.1-.48,.14-.73,.08-.2-.04-.39-.13-.54-.26,.02,.41-.17,.81-.53,1.05-.4,.27-.92,.26-1.3,0-.17,.76-.21,2.17,.11,3.3l.07,.24c.09,.32,.14,.5,.11,.77-.04,.79-.52,1.39-1.29,1.6h0c-.46,.13-.68,.29-.75,.36Zm.11-2.64s0,0,0,0c0,0,0,0,0,0Zm3.06-5.66h0s0,0,0,0Z"/>
    <path class="cls-1" d="M47.58,53.88c.46-.13,.42-.46,.43-.56,0-.11,.03,0-.14-.59-.66-2.3-.21-6.61,1.67-4.61-.41-.92,.99-1.72,1.6-1.44,.38,.17,.35,.49,.35,.49,0,0,.18-.51,.49-.53,.31-.02,1.68,.8,1.5,4.14,0,.03,0,.07,0,.1,.22-.11,.43-.21,.57-.18,.82,.19-1.47,3.88-.78,4.53,.12,.12,.18-.29,.44-.34,.46-.09,.41,.29,.4,.42-.25,2.5-4.86,2.2-6.6,1.67-1.74-.52-2.4-2.41,.07-3.1"/>
  </g>
  <polygon class="cls-3" points="31.37 35.41 29.91 35.04 29.79 36.46 31.37 35.41"/>
  <path class="cls-3" d="M42.11,32.34s.76,.12,.69,1.18c0,0,.45-1.01-.21-1.33l-.48,.15Z"/>
  <path class="cls-3" d="M33.37,30.88c.96-.13,.79-.3,2-.31,.85,0,1.33,.21,2.05,.29-.32-.75-2.02-1.16-3.26-.58-.51,.24-.63,.09-.78,.59"/>
  <path class="cls-1" d="M47.58,53.88c.46-.13,.42-.46,.43-.56,0-.11,.03,0-.14-.59-.66-2.3-.21-6.61,1.67-4.61-.41-.92,.99-1.72,1.6-1.44,.38,.17,.35,.49,.35,.49,0,0,.18-.51,.49-.53,.31-.02,1.68,.8,1.5,4.14,0,.03,0,.07,0,.1,.22-.11,.43-.21,.57-.18,.82,.19-1.47,3.88-.78,4.53,.12,.12,.18-.29,.44-.34,.46-.09,.41,.29,.4,.42-.25,2.5-4.86,2.2-6.6,1.67-1.74-.52-2.4-2.41,.07-3.1"/>
</svg>